<svg width="24" height="24" viewBox="0 0 24 24" fill="none" xmlns="http://www.w3.org/2000/svg">
<path d="M2 22V6C2 5.44772 2.44772 5 3 5H21C21.5523 5 22 5.44772 22 6V22C22 22.5523 21.5523 23 21 23H3C2.44772 23 2 22.5523 2 22Z" fill="currentColor" stroke="currentColor" stroke-width="2" stroke-linecap="round" stroke-linejoin="round"/>
<path d="M5 4.5V1.5C5 1.22386 5.22386 1 5.5 1C5.77614 1 6 1.22386 6 1.5V4.5C6 4.77614 5.77614 5 5.5 5C5.22386 5 5 4.77614 5 4.5Z" stroke="currentColor" stroke-width="2" stroke-linecap="round" stroke-linejoin="round"/>
<path d="M18 4.5V1.5C18 1.22386 18.2239 1 18.5 1C18.7761 1 19 1.22386 19 1.5V4.5C19 4.77614 18.7761 5 18.5 5C18.2239 5 18 4.77614 18 4.5Z" stroke="currentColor" stroke-width="2" stroke-linecap="round" stroke-linejoin="round"/>
</svg>
