<svg width="24" height="24" viewBox="0 0 24 24" fill="none" xmlns="http://www.w3.org/2000/svg">
<path fill-rule="evenodd" clip-rule="evenodd" d="M12 4C7.58172 4 4 7.58172 4 12C4 16.4183 7.58172 20 12 20C16.4183 20 20 16.4183 20 12C20 7.58172 16.4183 4 12 4ZM12 2C6.47715 2 2 6.47715 2 12C2 17.5228 6.47715 22 12 22C17.5228 22 22 17.5228 22 12C22 6.47715 17.5228 2 12 2Z" fill="currentColor"/>
<path fill-rule="evenodd" clip-rule="evenodd" d="M14.0694 12.688C14.435 12.3022 14.435 11.6978 14.0694 11.312L12.6081 9.77055C12.3058 9.45162 12.3058 8.95192 12.6081 8.63299C12.9342 8.28901 13.4821 8.28901 13.8082 8.63299L16.3477 11.312C16.7134 11.6978 16.7134 12.3022 16.3477 12.688L13.8082 15.367C13.4821 15.711 12.9342 15.711 12.6081 15.367C12.3058 15.0481 12.3058 14.5484 12.6081 14.2294L14.0694 12.688Z" fill="currentColor"/>
<path fill-rule="evenodd" clip-rule="evenodd" d="M6.99999 11.9998C6.99999 11.5305 7.38045 11.1501 7.84977 11.1501L14.2055 11.1501C14.6748 11.1501 15.0553 11.5305 15.0553 11.9998C15.0553 12.4692 14.6748 12.8496 14.2055 12.8496L7.84976 12.8496C7.38045 12.8496 6.99999 12.4691 6.99999 11.9998Z" fill="currentColor"/>
</svg>
