<svg width="24" height="24" viewBox="0 0 24 24" fill="none" xmlns="http://www.w3.org/2000/svg">
<path fill-rule="evenodd" clip-rule="evenodd" d="M16.7534 2.59818C17.551 1.80061 18.8441 1.80061 19.6417 2.59818L21.4018 4.35835C22.1994 5.15591 22.1994 6.44902 21.4018 7.24659L19.3595 9.28889L14.7111 4.64047L16.7534 2.59818ZM17.5994 4.64047L19.3595 6.40064L19.9577 5.80247L18.1975 4.0423L17.5994 4.64047ZM14.1129 5.23865L18.7614 9.88706L6.64842 22H3C2.44772 22 2 21.5523 2 21V17.3516L14.1129 5.23865ZM4.0423 18.1975V19.9577H5.80247L15.8731 9.88706L14.1129 8.12689L4.0423 18.1975Z" fill="white"/>
</svg>
