<svg width="24" height="24" viewBox="0 0 24 24" fill="none" xmlns="http://www.w3.org/2000/svg">
<path fill-rule="evenodd" clip-rule="evenodd" d="M12 4C7.58172 4 4 7.58172 4 12C4 16.4183 7.58172 20 12 20C16.4183 20 20 16.4183 20 12C20 7.58172 16.4183 4 12 4ZM12 2C6.47715 2 2 6.47715 2 12C2 17.5228 6.47715 22 12 22C17.5228 22 22 17.5228 22 12C22 6.47715 17.5228 2 12 2Z" fill="#141414"/>
<path fill-rule="evenodd" clip-rule="evenodd" d="M14.0692 12.688C14.4349 12.3022 14.4349 11.6978 14.0692 11.312L12.608 9.77055C12.3057 9.45162 12.3057 8.95192 12.608 8.63299C12.9341 8.28901 13.482 8.28901 13.8081 8.63299L16.3476 11.312C16.7133 11.6978 16.7133 12.3022 16.3476 12.688L13.8081 15.367C13.482 15.711 12.9341 15.711 12.608 15.367C12.3057 15.0481 12.3057 14.5484 12.608 14.2294L14.0692 12.688Z" fill="#141414"/>
<path fill-rule="evenodd" clip-rule="evenodd" d="M6.99986 11.9998C6.99986 11.5305 7.38032 11.1501 7.84964 11.1501L14.2054 11.1501C14.6747 11.1501 15.0552 11.5305 15.0552 11.9998C15.0552 12.4692 14.6747 12.8496 14.2054 12.8496L7.84964 12.8496C7.38032 12.8496 6.99986 12.4691 6.99986 11.9998Z" fill="#141414"/>
</svg>
