<svg width="24" height="24" viewBox="0 0 24 24" fill="none" xmlns="http://www.w3.org/2000/svg">
<circle cx="12" cy="12" r="3" stroke="white" stroke-width="2"/>
<path d="M13.7523 21.4608L14.5639 19.8212C14.7814 19.3817 15.2855 19.1648 15.7542 19.309L17.4621 19.8345C17.7961 19.9373 18.1595 19.8583 18.4206 19.6261L19.0588 19.0588L19.6261 18.4206C19.8583 18.1595 19.9373 17.7961 19.8345 17.4621L19.309 15.7542C19.1648 15.2855 19.3817 14.7814 19.8212 14.5639L21.4608 13.7523C21.8082 13.5804 22.025 13.2232 22.017 12.8357L22 12L22.017 11.1643C22.025 10.7768 21.8082 10.4196 21.4608 10.2477L19.8212 9.43615C19.3817 9.21862 19.1648 8.71452 19.309 8.24583L19.8345 6.53785C19.9373 6.20391 19.8583 5.84055 19.6261 5.5794L19.0588 4.94118L18.4206 4.37386C18.1595 4.14174 17.7961 4.06274 17.4621 4.16549L15.7508 4.69205C15.2836 4.83581 14.7809 4.62071 14.5623 4.18348L13.747 2.55279C13.5776 2.214 13.2313 2 12.8526 2H12H11.1236C10.7419 2 10.3935 2.21725 10.2256 2.55998L9.43462 4.17425C9.21818 4.61595 8.71267 4.83467 8.24254 4.69001L6.53785 4.16549C6.20391 4.06274 5.84055 4.14174 5.5794 4.37386L4.94118 4.94118L4.37386 5.5794C4.14174 5.84055 4.06274 6.20391 4.16549 6.53785L4.69205 8.24916C4.83581 8.71638 4.62071 9.21905 4.18348 9.43767L2.55279 10.253C2.214 10.4224 2 10.7687 2 11.1474V12V12.8526C2 13.2313 2.214 13.5776 2.55279 13.747L4.18348 14.5623C4.62071 14.7809 4.83581 15.2836 4.69205 15.7508L4.16549 17.4621C4.06274 17.7961 4.14174 18.1595 4.37386 18.4206L4.94118 19.0588L5.5794 19.6261C5.84055 19.8583 6.20391 19.9373 6.53785 19.8345L8.24583 19.309C8.71452 19.1648 9.21862 19.3817 9.43615 19.8212L10.2477 21.4608C10.4196 21.8082 10.7768 22.025 11.1643 22.017L12 22L12.8357 22.017C13.2232 22.025 13.5804 21.8082 13.7523 21.4608Z" stroke="white" stroke-width="2" stroke-linecap="round"/>
</svg>
